<svg xmlns="http://www.w3.org/2000/svg" viewBox="0 0 700 500">
  <defs><style>
    .cls-1,.cls-6,.cls-7{fill:#fff;}.cls-2,.cls-4{fill:none;}.cls-2,.cls-6,.cls-7{stroke:#40b149;}.cls-2,.cls-4,.cls-6,.cls-7{stroke-miterlimit:10;}.cls-3{opacity:0.3;}.cls-4{stroke:#005097;}.cls-4,.cls-6{stroke-width:0.93px;}.cls-5,.cls-8{fill:#40b149;}.cls-5{opacity:0.5;}.cls-7{stroke-width:1.21px;}

    .bubble {
      fill: #004f97;
      fill-opacity: 0;
      stroke: #6494C0;
      stroke-width: 1.5px;
      stroke-opacity: 0;
    }
    .bubble1a {
      animation: bubble1a-movement 2.83s linear infinite, bubble-fade 2.83s linear infinite;
      animation-delay: 1.5s;
    }
    .bubble2a {
      animation: bubble2a-movement 3.77s linear infinite, bubble-fade 3.77s linear infinite;
      animation-delay: 0.75s;
    }
    .bubble2b {
      animation: bubble2b-movement 3.68s linear infinite, bubble-fade 3.68s linear infinite;
      animation-delay: 2s;
    }
    .bubble3a {
      animation: bubble3a-movement 1.88s linear infinite, bubble-fade 1.88s linear infinite;
      animation-delay: 0.75s;
    }
    .bubble3b {
      animation: bubble3b-movement 2.88s linear infinite, bubble-fade 2.88s linear infinite;
      animation-delay: 1.25s;
    }
    .bubble3c {
      animation: bubble3c-movement 3.91s linear infinite, bubble-fade 3.91s linear infinite;
      animation-delay: 2s;
    }
    .bubble3d {
      animation: bubble3d-movement 5s linear infinite, bubble-fade 5s linear infinite;
      animation-delay: 3.5s;
    }
    .bubble3e {
      animation: bubble3e-movement 5s linear infinite, bubble-fade 5s linear infinite;
      animation-delay: 0s;
    }

    @keyframes bubble-fade {
      0%   { fill-opacity: 0;  stroke-opacity: 0; }
      15%  { fill-opacity: .25; stroke-opacity: .5; }
      85%  { fill-opacity: 1;  stroke-opacity: 1; }
      100% { fill-opacity: 0;  stroke-opacity: 0; }
    }

    @keyframes bubble1a-movement {
      0%     { transform: translate(577px, 403px); }
      41.56% { transform: translate(444.5px, 483px); }
      100%   { transform: translate(247px, 370.5px); }
    }

    @keyframes bubble2a-movement {
      0%     { transform: translate(556px, 391px); }
      17.46% { transform: translate(480px, 435px); }
      78.37% { transform: translate(211.5px, 281.5px); }
      92.46% { transform: translate(149px, 317px); }
      100%   { transform: translate(115px, 298px); }
    }

    @keyframes bubble2b-movement {
      0%     { transform: translate(556px, 391px); }
      17.67% { transform: translate(480px, 435px); }
      79.32% { transform: translate(211.5px, 281.5px); }
      92.57% { transform: translate(267.5px, 248.5px); }
      100%   { transform: translate(236px, 230px); }
    }

    @keyframes bubble3a-movement {
      0%     { transform: translate(537px, 378px); }
      19.69% { transform: translate(493px, 403px); }
      65.75% { transform: translate(390px, 344.5px); }
      78.74% { transform: translate(418px, 328px); }
      100%   { transform: translate(371px, 301px); }
    }

    @keyframes bubble3b-movement {
      0%     { transform: translate(537px, 378px); }
      12.82% { transform: translate(493px, 403px); }
      42.82% { transform: translate(390px, 344.5px); }
      86.92% { transform: translate(537px, 258.5px); }
      100%   { transform: translate(492px, 233px); }
    }

    @keyframes bubble3c-movement {
      0%     { transform: translate(537px, 378px); }
      9.43%  { transform: translate(493px, 403px); }
      31.51% { transform: translate(390px, 344.5px); }
      77.17% { transform: translate(598.5px, 223.5px); }
      92.82% { transform: translate(525px, 182px); }
      100%   { transform: translate(558px, 163px); }
    }

    @keyframes bubble3d-movement {
      0%     { transform: translate(537px, 378px); }
      7.40%  { transform: translate(493px, 403px); }
      24.70% { transform: translate(390px, 344.5px); }
      60.50% { transform: translate(598.5px, 223.5px); }
      84.62% { transform: translate(453.5px, 142px); }
      94.82% { transform: translate(394px, 176.5px); }
      100%   { transform: translate(363px, 159px); }
    }

    @keyframes bubble3e-movement {
      0%     { transform: translate(537px, 378px); }
      7.37%  { transform: translate(493px, 403px); }
      24.63% { transform: translate(390px, 344.5px); }
      60.32% { transform: translate(598.5px, 223.5px); }
      94.69% { transform: translate(394px, 107px); }
      100%   { transform: translate(424px, 89px); }
    }

</style></defs>
<circle cx="0" cy="0" r="6" class="bubble bubble1a" /><circle cx="0" cy="0" r="6" class="bubble bubble2a" /><circle cx="0" cy="0" r="6" class="bubble bubble2b" /><circle cx="0" cy="0" r="6" class="bubble bubble3a" /><circle cx="0" cy="0" r="6" class="bubble bubble3b" /><circle cx="0" cy="0" r="6" class="bubble bubble3c" /><circle cx="0" cy="0" r="6" class="bubble bubble3d" /><circle cx="0" cy="0" r="6" class="bubble bubble3e" /><path class="cls-1" d="M425.49,40.78A5.66,5.66,0,0,1,428,38.66a26,26,0,0,1,6.44-2.11,65.7,65.7,0,0,1,6.77-1,60.84,60.84,0,0,1,11.14,0,65.7,65.7,0,0,1,6.77,1,26,26,0,0,1,6.44,2.11,5.66,5.66,0,0,1,2.54,2.12,1.2,1.2,0,0,1,0,1.38A5.43,5.43,0,0,1,466,43.94a29.72,29.72,0,0,1-10.29,2.93,72.73,72.73,0,0,1-8.85.67,72.73,72.73,0,0,1-8.85-.67,29.72,29.72,0,0,1-10.29-2.93,5.43,5.43,0,0,1-2.13-1.78A1.2,1.2,0,0,1,425.49,40.78Z"/><path class="cls-1" d="M425.25,48.38a32.69,32.69,0,0,0,11.89,3.79,61.49,61.49,0,0,0,9.67.62,61.49,61.49,0,0,0,9.67-.62,32.69,32.69,0,0,0,11.89-3.79c0.52-.31.62-0.15,0.62,0.36q0,2.47,0,4.93a2.85,2.85,0,0,1-.47,1.39,8.86,8.86,0,0,1-3.79,3.28,24.88,24.88,0,0,1-7.34,2.58,38.22,38.22,0,0,1-8.33,1c-0.66,0-1.33,0-2.24,0s-1.58,0-2.24,0a38.22,38.22,0,0,1-8.33-1,24.88,24.88,0,0,1-7.34-2.58,8.86,8.86,0,0,1-3.79-3.28,2.85,2.85,0,0,1-.47-1.39q0-2.47,0-4.93C424.63,48.23,424.73,48.07,425.25,48.38Z"/><g class="cls-3"><polyline class="cls-4" points="245.77 369.88 444.76 483.28 582.67 399.68"/><line class="cls-4" x1="368.9" y1="299.8" x2="418.45" y2="327.81"/><polyline class="cls-4" points="558.7 389.45 480.13 435.25 210.73 281.54"/><line class="cls-4" x1="524.73" y1="182.19" x2="575.18" y2="152.94"/><polyline class="cls-4" points="537.93 377.58 493.13 403.44 389.57 344.46 598.88 223.81 393.21 107.27 431.95 84.79"/><polyline class="cls-4" points="113.92 297.64 148.89 317.57 267.61 248.39 235.17 229.91"/><polyline class="cls-4" points="361.44 158.38 393.96 176.91 454.56 142.04"/><line class="cls-4" x1="490.68" y1="232.03" x2="538.01" y2="258.9"/></g><polygon class="cls-5" points="145.04 213.33 207.07 248.78 268.64 213.08 206.63 176.51 145.04 213.33"/><polygon class="cls-6" points="145.04 210.75 207.07 246.19 268.64 210.5 206.63 173.93 145.04 210.75"/><polygon class="cls-5" points="276.68 285.6 338.71 321.05 400.28 285.35 338.27 248.78 276.68 285.6"/><polygon class="cls-6" points="276.68 283.02 338.71 318.46 400.28 282.77 338.27 246.19 276.68 283.02"/><polygon class="cls-5" points="517.69 369.38 598.33 415.46 678.38 369.06 597.76 321.51 517.69 369.38"/><polygon class="cls-7" points="517.69 366.02 598.33 412.1 678.38 365.7 597.76 318.15 517.69 366.02"/><path class="cls-8" d="M630.65,354a1.67,1.67,0,0,1,0-1.81,9,9,0,0,0,1.13-4.7c-0.1-2.87-.09-5.74,0-8.61a9.5,9.5,0,0,0-1.32-5.31,1.06,1.06,0,0,1,0-1.28,9,9,0,0,0,1.3-5q-0.08-4.47,0-8.94a8.42,8.42,0,0,0-1-4.41,1.79,1.79,0,0,1-.13-1.56,5.18,5.18,0,0,0-1-4.92,14.72,14.72,0,0,0-6.08-4.61,54.29,54.29,0,0,0-12.17-3.45,90.29,90.29,0,0,0-29.9,0,54.29,54.29,0,0,0-12.17,3.45,14.72,14.72,0,0,0-6.08,4.61,5.18,5.18,0,0,0-1,4.92,1.79,1.79,0,0,1-.13,1.56,8.42,8.42,0,0,0-1,4.41q0.07,4.47,0,8.94a9,9,0,0,0,1.3,5,1.06,1.06,0,0,1,0,1.28,9.5,9.5,0,0,0-1.32,5.31c0.08,2.87.1,5.74,0,8.61a9,9,0,0,0,1.13,4.7,1.67,1.67,0,0,1,0,1.81,8.57,8.57,0,0,0-1.08,4.28c0.06,3.31,0,6.61,0,9.92a6.58,6.58,0,0,0,.23,1.83c1,3.48,3.44,5.77,6.34,7.59a43.23,43.23,0,0,0,15.55,5.57,52.67,52.67,0,0,0,12.87.89h0.55a52.67,52.67,0,0,0,12.87-.89,43.23,43.23,0,0,0,15.55-5.57c2.89-1.83,5.35-4.12,6.34-7.59a6.58,6.58,0,0,0,.23-1.83c0-3.31,0-6.62,0-9.92A8.57,8.57,0,0,0,630.65,354Z"/><path class="cls-1" d="M566.77,310.15a7.89,7.89,0,0,1,3.54-3,36.12,36.12,0,0,1,9-2.93,91.47,91.47,0,0,1,9.42-1.37,84.71,84.71,0,0,1,15.51,0,91.47,91.47,0,0,1,9.42,1.37,36.12,36.12,0,0,1,9,2.93,7.89,7.89,0,0,1,3.54,3,1.67,1.67,0,0,1-.05,1.92,7.55,7.55,0,0,1-3,2.49c-4.46,2.46-9.39,3.36-14.33,4.08a81.76,81.76,0,0,1-24.66,0c-4.94-.72-9.87-1.63-14.33-4.08a7.55,7.55,0,0,1-3-2.49A1.67,1.67,0,0,1,566.77,310.15Z"/><path class="cls-1" d="M566.43,320.73c5.12,3,10.72,4.39,16.55,5.28a105.7,105.7,0,0,0,26.93,0c5.83-.9,11.44-2.27,16.55-5.28,0.73-.43.87-0.21,0.86,0.5q0,3.43,0,6.87a4,4,0,0,1-.66,1.93c-1.18,2.19-3.23,3.41-5.28,4.57a34.64,34.64,0,0,1-10.22,3.59,53.21,53.21,0,0,1-11.6,1.44c-0.92,0-1.85,0-3.12,0s-2.2,0-3.12,0a53.21,53.21,0,0,1-11.6-1.44,34.64,34.64,0,0,1-10.22-3.59c-2-1.16-4.09-2.38-5.28-4.57a4,4,0,0,1-.66-1.93q0-3.43,0-6.87C565.57,320.52,565.71,320.3,566.43,320.73Z"/><path class="cls-1" d="M625.5,371.77c-4,4-9.24,5.4-14.52,6.66a55.58,55.58,0,0,1-6.09,1,58.45,58.45,0,0,1-16.9,0,55.58,55.58,0,0,1-6.09-1c-5.27-1.26-10.49-2.68-14.52-6.66a5.51,5.51,0,0,1-1.84-4.14c0-2.36,0-4.72,0-7.08,0-.85.18-1.08,1-0.52a35.93,35.93,0,0,0,12.26,5.43c1.84,0.47,3.75.72,5.62,1.09a87.85,87.85,0,0,0,24.1,0c1.87-.37,3.78-0.62,5.62-1.09A35.93,35.93,0,0,0,626.38,360c0.78-.56,1-0.33,1,0.52,0,2.36,0,4.72,0,7.08A5.51,5.51,0,0,1,625.5,371.77Z"/><path class="cls-1" d="M626.05,351.17c-2.42,2.9-5.72,4.4-9.16,5.6a58.67,58.67,0,0,1-8.29,2.15,79.88,79.88,0,0,1-9.88,1.1c-0.76.05-1.52,0.07-2.28,0.07s-1.52,0-2.28-.07a79.88,79.88,0,0,1-9.88-1.1,58.67,58.67,0,0,1-8.29-2.15c-3.44-1.2-6.73-2.7-9.16-5.6a4.83,4.83,0,0,1-1.29-3.26c0-2.47,0-4.94,0-7.41,0-.78.15-1,0.88-0.5a36.6,36.6,0,0,0,14,5.83c2.27,0.51,4.61.81,6.94,1.14,3,0.43,6.08.34,9.11,0.47h0c3-.14,6.07,0,9.11-0.47,2.32-.33,4.66-0.63,6.94-1.14a36.6,36.6,0,0,0,14-5.83c0.74-.54.89-0.28,0.88,0.5,0,2.47,0,4.94,0,7.41A4.83,4.83,0,0,1,626.05,351.17Z"/><path class="cls-8" d="M364.79,273.66a1.28,1.28,0,0,1,0-1.39,6.93,6.93,0,0,0,.87-3.61c-0.08-2.21-.07-4.42,0-6.62a7.3,7.3,0,0,0-1-4.08,0.82,0.82,0,0,1,0-1,6.9,6.9,0,0,0,1-3.83q-0.06-3.44,0-6.88a6.48,6.48,0,0,0-.76-3.39,1.37,1.37,0,0,1-.1-1.2,4,4,0,0,0-.73-3.79,11.32,11.32,0,0,0-4.68-3.55,41.76,41.76,0,0,0-9.36-2.66,69.46,69.46,0,0,0-23,0,41.76,41.76,0,0,0-9.36,2.66,11.32,11.32,0,0,0-4.68,3.55,4,4,0,0,0-.73,3.79,1.37,1.37,0,0,1-.1,1.2,6.48,6.48,0,0,0-.76,3.39q0.05,3.44,0,6.88a6.9,6.9,0,0,0,1,3.83,0.82,0.82,0,0,1,0,1,7.3,7.3,0,0,0-1,4.08c0.06,2.21.07,4.42,0,6.62a6.93,6.93,0,0,0,.87,3.61,1.28,1.28,0,0,1,0,1.39,6.59,6.59,0,0,0-.83,3.29c0,2.54,0,5.09,0,7.63a5.06,5.06,0,0,0,.18,1.41,10.32,10.32,0,0,0,4.87,5.84,33.25,33.25,0,0,0,12,4.29,40.52,40.52,0,0,0,9.9.68h0.43a40.52,40.52,0,0,0,9.9-.68,33.25,33.25,0,0,0,12-4.29,10.32,10.32,0,0,0,4.87-5.84,5.06,5.06,0,0,0,.18-1.41c0-2.54,0-5.09,0-7.63A6.59,6.59,0,0,0,364.79,273.66Z"/><path class="cls-1" d="M315.65,239.93a6.07,6.07,0,0,1,2.72-2.27,27.79,27.79,0,0,1,6.89-2.25,70.36,70.36,0,0,1,7.25-1.06,65.16,65.16,0,0,1,11.93,0,70.36,70.36,0,0,1,7.25,1.06,27.79,27.79,0,0,1,6.89,2.25,6.07,6.07,0,0,1,2.72,2.27,1.28,1.28,0,0,1,0,1.47,5.81,5.81,0,0,1-2.28,1.91c-3.43,1.89-7.22,2.59-11,3.14a62.89,62.89,0,0,1-19,0c-3.8-.55-7.6-1.25-11-3.14a5.81,5.81,0,0,1-2.28-1.91A1.28,1.28,0,0,1,315.65,239.93Z"/><path class="cls-1" d="M315.39,248.07a35,35,0,0,0,12.73,4.06,81.31,81.31,0,0,0,20.72,0,35,35,0,0,0,12.73-4.06c0.56-.33.67-0.16,0.66,0.39q0,2.64,0,5.28a3.06,3.06,0,0,1-.51,1.49,9.49,9.49,0,0,1-4.06,3.51,26.64,26.64,0,0,1-7.86,2.76,40.93,40.93,0,0,1-8.92,1.1c-0.71,0-1.42,0-2.4,0s-1.69,0-2.4,0a40.93,40.93,0,0,1-8.92-1.1,26.64,26.64,0,0,1-7.86-2.76,9.49,9.49,0,0,1-4.06-3.51,3.06,3.06,0,0,1-.51-1.49q0-2.64,0-5.28C314.72,247.9,314.83,247.74,315.39,248.07Z"/><path class="cls-1" d="M360.83,287.33c-3.1,3.06-7.11,4.15-11.17,5.12a42.75,42.75,0,0,1-4.68.76,45,45,0,0,1-13,0,42.75,42.75,0,0,1-4.68-.76c-4.06-1-8.07-2.06-11.17-5.12a4.24,4.24,0,0,1-1.41-3.19c0-1.82,0-3.63,0-5.45,0-.65.14-0.83,0.74-0.4a27.64,27.64,0,0,0,9.43,4.18c1.41,0.36,2.89.55,4.32,0.84a67.57,67.57,0,0,0,18.54,0c1.44-.29,2.91-0.48,4.32-0.84a27.64,27.64,0,0,0,9.43-4.18c0.6-.43.74-0.25,0.74,0.4,0,1.82,0,3.63,0,5.45A4.24,4.24,0,0,1,360.83,287.33Z"/><path class="cls-1" d="M361.25,271.49a15.22,15.22,0,0,1-7,4.31,45.13,45.13,0,0,1-6.37,1.65,61.44,61.44,0,0,1-7.6.85c-0.58,0-1.17.06-1.75,0.06s-1.17,0-1.75-.06a61.44,61.44,0,0,1-7.6-.85,45.13,45.13,0,0,1-6.37-1.65,15.22,15.22,0,0,1-7-4.31,3.71,3.71,0,0,1-1-2.51c0-1.9,0-3.8,0-5.7,0-.6.11-0.8,0.68-0.39a28.15,28.15,0,0,0,10.74,4.49c1.75,0.39,3.55.62,5.34,0.87,2.34,0.33,4.68.26,7,.37h0c2.33-.1,4.67,0,7-0.37,1.79-.25,3.59-0.48,5.34-0.87a28.15,28.15,0,0,0,10.74-4.49c0.57-.41.68-0.21,0.68,0.39,0,1.9,0,3.8,0,5.7A3.71,3.71,0,0,1,361.25,271.49Z"/><path class="cls-8" d="M233.15,200.41a1.28,1.28,0,0,1,0-1.39,6.93,6.93,0,0,0,.87-3.61c-0.08-2.21-.07-4.42,0-6.62a7.3,7.3,0,0,0-1-4.08,0.82,0.82,0,0,1,0-1,6.9,6.9,0,0,0,1-3.83q-0.06-3.44,0-6.88a6.48,6.48,0,0,0-.76-3.39,1.37,1.37,0,0,1-.1-1.2,4,4,0,0,0-.73-3.79,11.32,11.32,0,0,0-4.68-3.55,41.76,41.76,0,0,0-9.36-2.66,69.46,69.46,0,0,0-23,0,41.76,41.76,0,0,0-9.36,2.66,11.32,11.32,0,0,0-4.68,3.55,4,4,0,0,0-.73,3.79,1.37,1.37,0,0,1-.1,1.2,6.48,6.48,0,0,0-.76,3.39q0.05,3.44,0,6.88a6.9,6.9,0,0,0,1,3.83,0.82,0.82,0,0,1,0,1,7.3,7.3,0,0,0-1,4.08c0.06,2.21.07,4.42,0,6.62a6.93,6.93,0,0,0,.87,3.61,1.28,1.28,0,0,1,0,1.39,6.59,6.59,0,0,0-.83,3.29c0,2.54,0,5.09,0,7.63a5.06,5.06,0,0,0,.18,1.41,10.32,10.32,0,0,0,4.87,5.84,33.25,33.25,0,0,0,12,4.29,40.52,40.52,0,0,0,9.9.68h0.43a40.52,40.52,0,0,0,9.9-.68,33.25,33.25,0,0,0,12-4.29,10.32,10.32,0,0,0,4.87-5.84,5.06,5.06,0,0,0,.18-1.41c0-2.54,0-5.09,0-7.63A6.59,6.59,0,0,0,233.15,200.41Z"/><path class="cls-1" d="M184,166.68a6.07,6.07,0,0,1,2.72-2.27,27.79,27.79,0,0,1,6.89-2.25,70.36,70.36,0,0,1,7.25-1.06,65.16,65.16,0,0,1,11.93,0,70.36,70.36,0,0,1,7.25,1.06,27.79,27.79,0,0,1,6.89,2.25,6.07,6.07,0,0,1,2.72,2.27,1.28,1.28,0,0,1,0,1.47,5.81,5.81,0,0,1-2.28,1.91c-3.43,1.89-7.22,2.59-11,3.14a77.89,77.89,0,0,1-9.48.72,77.89,77.89,0,0,1-9.48-.72c-3.8-.55-7.6-1.25-11-3.14a5.81,5.81,0,0,1-2.28-1.91A1.28,1.28,0,0,1,184,166.68Z"/><path class="cls-1" d="M183.75,174.82a35,35,0,0,0,12.73,4.06,81.31,81.31,0,0,0,20.72,0,35,35,0,0,0,12.73-4.06c0.56-.33.67-0.16,0.66,0.39q0,2.64,0,5.28a3.06,3.06,0,0,1-.51,1.49,9.49,9.49,0,0,1-4.06,3.51,26.64,26.64,0,0,1-7.86,2.76,40.93,40.93,0,0,1-8.92,1.1c-0.71,0-1.42,0-2.4,0s-1.69,0-2.4,0a40.93,40.93,0,0,1-8.92-1.1,26.64,26.64,0,0,1-7.86-2.76A9.49,9.49,0,0,1,183.6,182a3.06,3.06,0,0,1-.51-1.49q0-2.64,0-5.28C183.09,174.66,183.19,174.49,183.75,174.82Z"/><path class="cls-1" d="M229.19,214.08c-3.1,3.06-7.11,4.15-11.17,5.12a42.75,42.75,0,0,1-4.68.76,45,45,0,0,1-13,0,42.75,42.75,0,0,1-4.68-.76c-4.06-1-8.07-2.06-11.17-5.12a4.24,4.24,0,0,1-1.41-3.19c0-1.82,0-3.63,0-5.45,0-.65.14-0.83,0.74-0.4a27.64,27.64,0,0,0,9.43,4.18c1.41,0.36,2.89.55,4.32,0.84a45.63,45.63,0,0,0,9.27.64,45.63,45.63,0,0,0,9.27-.64c1.44-.29,2.91-0.48,4.32-0.84a27.64,27.64,0,0,0,9.43-4.18c0.6-.43.74-0.25,0.74,0.4,0,1.82,0,3.63,0,5.45A4.24,4.24,0,0,1,229.19,214.08Z"/><path class="cls-1" d="M229.61,198.24a15.22,15.22,0,0,1-7,4.31,45.13,45.13,0,0,1-6.37,1.65,61.44,61.44,0,0,1-7.6.85c-0.58,0-1.17.06-1.75,0.06s-1.17,0-1.75-.06a61.44,61.44,0,0,1-7.6-.85,45.13,45.13,0,0,1-6.37-1.65,15.22,15.22,0,0,1-7-4.31,3.71,3.71,0,0,1-1-2.51c0-1.9,0-3.8,0-5.7,0-.6.11-0.8,0.68-0.39a28.15,28.15,0,0,0,10.74,4.49c1.75,0.39,3.55.62,5.34,0.87,2.34,0.33,4.68.26,7,.37h0c2.33-.1,4.67,0,7-0.37,1.79-.25,3.59-0.48,5.34-0.87a28.15,28.15,0,0,0,10.74-4.49c0.57-.41.68-0.21,0.68,0.39,0,1.9,0,3.8,0,5.7A3.71,3.71,0,0,1,229.61,198.24Z"/><polygon class="cls-5" points="391.88 72.6 453.91 108.05 515.48 72.36 453.47 35.78 391.88 72.6"/><polygon class="cls-6" points="391.88 70.02 453.91 105.47 515.48 69.78 453.47 33.2 391.88 70.02"/><polygon class="cls-5" points="268.46 143.46 330.49 178.9 392.06 143.21 330.05 106.63 268.46 143.46"/><polygon class="cls-6" points="268.46 140.87 330.49 176.32 392.06 140.63 330.05 104.05 268.46 140.87"/><polygon class="cls-5" points="400.1 215.72 462.13 251.17 523.7 215.48 461.69 178.9 400.1 215.72"/><polygon class="cls-6" points="400.1 213.14 462.13 248.59 523.7 212.9 461.69 176.32 400.1 213.14"/><polygon class="cls-5" points="524.73 144.75 586.76 180.19 648.33 144.5 586.33 107.92 524.73 144.75"/><polygon class="cls-6" points="524.73 142.16 586.76 177.61 648.33 141.92 586.33 105.34 524.73 142.16"/><path class="cls-8" d="M611.62,132.92a1.28,1.28,0,0,1,0-1.39,6.93,6.93,0,0,0,.87-3.61c-0.08-2.21-.07-4.42,0-6.62a7.3,7.3,0,0,0-1-4.08,0.82,0.82,0,0,1,0-1,6.9,6.9,0,0,0,1-3.83q-0.06-3.44,0-6.88a6.48,6.48,0,0,0-.76-3.39,1.37,1.37,0,0,1-.1-1.2,4,4,0,0,0-.73-3.79,11.32,11.32,0,0,0-4.68-3.55,41.76,41.76,0,0,0-9.36-2.66,69.46,69.46,0,0,0-23,0,41.76,41.76,0,0,0-9.36,2.66,11.32,11.32,0,0,0-4.68,3.55,4,4,0,0,0-.73,3.79,1.37,1.37,0,0,1-.1,1.2,6.48,6.48,0,0,0-.76,3.39q0.05,3.44,0,6.88a6.9,6.9,0,0,0,1,3.83,0.82,0.82,0,0,1,0,1,7.3,7.3,0,0,0-1,4.08c0.06,2.21.07,4.42,0,6.62a6.93,6.93,0,0,0,.87,3.61,1.28,1.28,0,0,1,0,1.39,6.59,6.59,0,0,0-.83,3.29c0,2.54,0,5.09,0,7.63a5.06,5.06,0,0,0,.18,1.41,10.32,10.32,0,0,0,4.87,5.84,33.25,33.25,0,0,0,12,4.29,40.52,40.52,0,0,0,9.9.68h0.43a40.52,40.52,0,0,0,9.9-.68,33.25,33.25,0,0,0,12-4.29,10.32,10.32,0,0,0,4.87-5.84,5.06,5.06,0,0,0,.18-1.41c0-2.54,0-5.09,0-7.63A6.59,6.59,0,0,0,611.62,132.92Z"/><path class="cls-1" d="M562.49,99.18a6.07,6.07,0,0,1,2.72-2.27,27.79,27.79,0,0,1,6.89-2.25,70.36,70.36,0,0,1,7.25-1.06,65.16,65.16,0,0,1,11.93,0,70.36,70.36,0,0,1,7.25,1.06,27.79,27.79,0,0,1,6.89,2.25,6.07,6.07,0,0,1,2.72,2.27,1.28,1.28,0,0,1,0,1.47,5.81,5.81,0,0,1-2.28,1.91c-3.43,1.89-7.22,2.59-11,3.14a62.89,62.89,0,0,1-19,0c-3.8-.55-7.6-1.25-11-3.14a5.81,5.81,0,0,1-2.28-1.91A1.28,1.28,0,0,1,562.49,99.18Z"/><path class="cls-1" d="M562.22,107.32A35,35,0,0,0,575,111.38a81.31,81.31,0,0,0,20.72,0,35,35,0,0,0,12.73-4.06c0.56-.33.67-0.16,0.66,0.39q0,2.64,0,5.28a3.06,3.06,0,0,1-.51,1.49A9.49,9.49,0,0,1,604.5,118a26.64,26.64,0,0,1-7.86,2.76,40.93,40.93,0,0,1-8.92,1.1c-0.71,0-1.42,0-2.4,0s-1.69,0-2.4,0a40.93,40.93,0,0,1-8.92-1.1,26.64,26.64,0,0,1-7.86-2.76,9.49,9.49,0,0,1-4.06-3.51,3.06,3.06,0,0,1-.51-1.49q0-2.64,0-5.28C561.56,107.16,561.67,107,562.22,107.32Z"/><path class="cls-1" d="M607.66,146.59c-3.1,3.06-7.11,4.15-11.17,5.12a42.75,42.75,0,0,1-4.68.76,45,45,0,0,1-13,0,42.75,42.75,0,0,1-4.68-.76c-4.06-1-8.07-2.06-11.17-5.12a4.24,4.24,0,0,1-1.41-3.19c0-1.82,0-3.63,0-5.45,0-.65.14-0.83,0.74-0.4a27.64,27.64,0,0,0,9.43,4.18c1.41,0.36,2.89.55,4.32,0.84a67.57,67.57,0,0,0,18.54,0c1.44-.29,2.91-0.48,4.32-0.84a27.64,27.64,0,0,0,9.43-4.18c0.6-.43.74-0.25,0.74,0.4,0,1.82,0,3.63,0,5.45A4.24,4.24,0,0,1,607.66,146.59Z"/><path class="cls-1" d="M608.09,130.74a15.22,15.22,0,0,1-7,4.31,45.13,45.13,0,0,1-6.37,1.65,61.44,61.44,0,0,1-7.6.85c-0.58,0-1.17.06-1.75,0.06s-1.17,0-1.75-.06a61.44,61.44,0,0,1-7.6-.85,45.13,45.13,0,0,1-6.37-1.65,15.22,15.22,0,0,1-7-4.31,3.71,3.71,0,0,1-1-2.51c0-1.9,0-3.8,0-5.7,0-.6.11-0.8,0.68-0.39A28.15,28.15,0,0,0,573,126.64c1.75,0.39,3.55.62,5.34,0.87,2.34,0.33,4.68.26,7,.37h0c2.33-.1,4.67,0,7-0.37,1.79-.25,3.59-0.48,5.34-0.87a28.15,28.15,0,0,0,10.74-4.49c0.57-.41.68-0.21,0.68,0.39,0,1.9,0,3.8,0,5.7A3.71,3.71,0,0,1,608.09,130.74Z"/><path class="cls-8" d="M488.21,203.79a1.28,1.28,0,0,1,0-1.39,6.93,6.93,0,0,0,.87-3.61c-0.08-2.21-.07-4.42,0-6.62a7.3,7.3,0,0,0-1-4.08,0.82,0.82,0,0,1,0-1,6.9,6.9,0,0,0,1-3.83q-0.06-3.44,0-6.88a6.48,6.48,0,0,0-.76-3.39,1.37,1.37,0,0,1-.1-1.2,4,4,0,0,0-.73-3.79,11.32,11.32,0,0,0-4.68-3.55,41.76,41.76,0,0,0-9.36-2.66,69.46,69.46,0,0,0-23,0,41.76,41.76,0,0,0-9.36,2.66,11.32,11.32,0,0,0-4.68,3.55,4,4,0,0,0-.73,3.79,1.37,1.37,0,0,1-.1,1.2,6.48,6.48,0,0,0-.76,3.39q0.05,3.44,0,6.88a6.9,6.9,0,0,0,1,3.83,0.82,0.82,0,0,1,0,1,7.3,7.3,0,0,0-1,4.08c0.06,2.21.07,4.42,0,6.62a6.93,6.93,0,0,0,.87,3.61,1.28,1.28,0,0,1,0,1.39,6.59,6.59,0,0,0-.83,3.29c0,2.54,0,5.09,0,7.63a5.06,5.06,0,0,0,.18,1.41,10.32,10.32,0,0,0,4.87,5.84,33.25,33.25,0,0,0,12,4.29,40.52,40.52,0,0,0,9.9.68h0.43a40.52,40.52,0,0,0,9.9-.68A33.25,33.25,0,0,0,484,222a10.32,10.32,0,0,0,4.87-5.84,5.06,5.06,0,0,0,.18-1.41c0-2.54,0-5.09,0-7.63A6.59,6.59,0,0,0,488.21,203.79Z"/><path class="cls-1" d="M439.07,170.05a6.07,6.07,0,0,1,2.72-2.27,27.79,27.79,0,0,1,6.89-2.25,70.36,70.36,0,0,1,7.25-1.06,65.16,65.16,0,0,1,11.93,0,70.36,70.36,0,0,1,7.25,1.06,27.79,27.79,0,0,1,6.89,2.25,6.07,6.07,0,0,1,2.72,2.27,1.28,1.28,0,0,1,0,1.47,5.81,5.81,0,0,1-2.28,1.91c-3.43,1.89-7.22,2.59-11,3.14a62.89,62.89,0,0,1-19,0c-3.8-.55-7.6-1.25-11-3.14a5.81,5.81,0,0,1-2.28-1.91A1.28,1.28,0,0,1,439.07,170.05Z"/><path class="cls-1" d="M438.81,178.19a35,35,0,0,0,12.73,4.06,81.31,81.31,0,0,0,20.72,0A35,35,0,0,0,485,178.19c0.56-.33.67-0.16,0.66,0.39q0,2.64,0,5.28a3.06,3.06,0,0,1-.51,1.49,9.49,9.49,0,0,1-4.06,3.51,26.64,26.64,0,0,1-7.86,2.76,40.93,40.93,0,0,1-8.92,1.1c-0.71,0-1.42,0-2.4,0s-1.69,0-2.4,0a40.93,40.93,0,0,1-8.92-1.1,26.64,26.64,0,0,1-7.86-2.76,9.49,9.49,0,0,1-4.06-3.51,3.06,3.06,0,0,1-.51-1.49q0-2.64,0-5.28C438.14,178,438.25,177.86,438.81,178.19Z"/><path class="cls-1" d="M484.25,217.46c-3.1,3.06-7.11,4.15-11.17,5.12a42.75,42.75,0,0,1-4.68.76,45,45,0,0,1-13,0,42.75,42.75,0,0,1-4.68-.76c-4.06-1-8.07-2.06-11.17-5.12a4.24,4.24,0,0,1-1.41-3.19c0-1.82,0-3.63,0-5.45,0-.65.14-0.83,0.74-0.4a27.64,27.64,0,0,0,9.43,4.18c1.41,0.36,2.89.55,4.32,0.84a67.57,67.57,0,0,0,18.54,0c1.44-.29,2.91-0.48,4.32-0.84a27.64,27.64,0,0,0,9.43-4.18c0.6-.43.74-0.25,0.74,0.4,0,1.82,0,3.63,0,5.45A4.24,4.24,0,0,1,484.25,217.46Z"/><path class="cls-1" d="M484.67,201.61a15.22,15.22,0,0,1-7,4.31,45.13,45.13,0,0,1-6.37,1.65,61.44,61.44,0,0,1-7.6.85c-0.58,0-1.17.06-1.75,0.06s-1.17,0-1.75-.06a61.44,61.44,0,0,1-7.6-.85,45.13,45.13,0,0,1-6.37-1.65,15.22,15.22,0,0,1-7-4.31,3.71,3.71,0,0,1-1-2.51c0-1.9,0-3.8,0-5.7,0-.6.11-0.8,0.68-0.39a28.15,28.15,0,0,0,10.74,4.49c1.75,0.39,3.55.62,5.34,0.87,2.34,0.33,4.68.26,7,.37h0c2.33-.1,4.67,0,7-0.37,1.79-.25,3.59-0.48,5.34-0.87A28.15,28.15,0,0,0,485,193c0.57-.41.68-0.21,0.68,0.39,0,1.9,0,3.8,0,5.7A3.71,3.71,0,0,1,484.67,201.61Z"/><path class="cls-8" d="M480,59.67a1.28,1.28,0,0,1,0-1.39,6.93,6.93,0,0,0,.87-3.61c-0.08-2.21-.07-4.42,0-6.62a7.3,7.3,0,0,0-1-4.08,0.82,0.82,0,0,1,0-1,6.9,6.9,0,0,0,1-3.83q-0.06-3.44,0-6.88a6.48,6.48,0,0,0-.76-3.39,1.37,1.37,0,0,1-.1-1.2,4,4,0,0,0-.73-3.79,11.32,11.32,0,0,0-4.68-3.55,41.76,41.76,0,0,0-9.36-2.66,69.46,69.46,0,0,0-23,0,41.76,41.76,0,0,0-9.36,2.66,11.32,11.32,0,0,0-4.68,3.55,4,4,0,0,0-.73,3.79,1.37,1.37,0,0,1-.1,1.2,6.48,6.48,0,0,0-.76,3.39q0.05,3.44,0,6.88a6.9,6.9,0,0,0,1,3.83,0.82,0.82,0,0,1,0,1,7.3,7.3,0,0,0-1,4.08c0.06,2.21.07,4.42,0,6.62a6.93,6.93,0,0,0,.87,3.61,1.28,1.28,0,0,1,0,1.39,6.59,6.59,0,0,0-.83,3.29c0,2.54,0,5.09,0,7.63a5.06,5.06,0,0,0,.18,1.41,10.32,10.32,0,0,0,4.87,5.84,33.25,33.25,0,0,0,12,4.29,40.52,40.52,0,0,0,9.9.68h0.43a40.52,40.52,0,0,0,9.9-.68,33.25,33.25,0,0,0,12-4.29A10.32,10.32,0,0,0,480.63,72a5.06,5.06,0,0,0,.18-1.41c0-2.54,0-5.09,0-7.63A6.59,6.59,0,0,0,480,59.67Z"/><path class="cls-1" d="M430.85,25.93a6.07,6.07,0,0,1,2.72-2.27,27.79,27.79,0,0,1,6.89-2.25,70.36,70.36,0,0,1,7.25-1.06,65.16,65.16,0,0,1,11.93,0,70.36,70.36,0,0,1,7.25,1.06,27.79,27.79,0,0,1,6.89,2.25,6.07,6.07,0,0,1,2.72,2.27,1.28,1.28,0,0,1,0,1.47,5.81,5.81,0,0,1-2.28,1.91c-3.43,1.89-7.22,2.59-11,3.14a77.89,77.89,0,0,1-9.48.72,77.89,77.89,0,0,1-9.48-.72c-3.8-.55-7.6-1.25-11-3.14a5.81,5.81,0,0,1-2.28-1.91A1.28,1.28,0,0,1,430.85,25.93Z"/><path class="cls-1" d="M430.59,34.07a35,35,0,0,0,12.73,4.06,65.85,65.85,0,0,0,10.36.66A65.85,65.85,0,0,0,464,38.13a35,35,0,0,0,12.73-4.06c0.56-.33.67-0.16,0.66,0.39q0,2.64,0,5.28a3.06,3.06,0,0,1-.51,1.49,9.49,9.49,0,0,1-4.06,3.51A26.64,26.64,0,0,1,465,47.5a40.93,40.93,0,0,1-8.92,1.1c-0.71,0-1.42,0-2.4,0s-1.69,0-2.4,0a40.93,40.93,0,0,1-8.92-1.1,26.64,26.64,0,0,1-7.86-2.76,9.49,9.49,0,0,1-4.06-3.51,3.06,3.06,0,0,1-.51-1.49q0-2.64,0-5.28C429.92,33.91,430,33.74,430.59,34.07Z"/><path class="cls-1" d="M476,73.34c-3.1,3.06-7.11,4.15-11.17,5.12a42.75,42.75,0,0,1-4.68.76,45,45,0,0,1-13,0,42.75,42.75,0,0,1-4.68-.76c-4.06-1-8.07-2.06-11.17-5.12a4.24,4.24,0,0,1-1.41-3.19c0-1.82,0-3.63,0-5.45,0-.65.14-0.83,0.74-0.4a27.64,27.64,0,0,0,9.43,4.18c1.41,0.36,2.89.55,4.32,0.84a67.57,67.57,0,0,0,18.54,0c1.44-.29,2.91-0.48,4.32-0.84a27.64,27.64,0,0,0,9.43-4.18c0.6-.43.74-0.25,0.74,0.4,0,1.82,0,3.63,0,5.45A4.24,4.24,0,0,1,476,73.34Z"/><path class="cls-1" d="M476.45,57.49a15.22,15.22,0,0,1-7,4.31A45.13,45.13,0,0,1,463,63.45a61.44,61.44,0,0,1-7.6.85c-0.58,0-1.17.06-1.75,0.06s-1.17,0-1.75-.06a61.44,61.44,0,0,1-7.6-.85A45.13,45.13,0,0,1,438,61.8a15.22,15.22,0,0,1-7-4.31,3.71,3.71,0,0,1-1-2.51c0-1.9,0-3.8,0-5.7,0-.6.11-0.8,0.68-0.39a28.15,28.15,0,0,0,10.74,4.49c1.75,0.39,3.55.62,5.34,0.87,2.34,0.33,4.68.26,7,.37h0c2.33-.1,4.67,0,7-0.37,1.79-.25,3.59-0.48,5.34-0.87a28.15,28.15,0,0,0,10.74-4.49c0.57-.41.68-0.21,0.68,0.39,0,1.9,0,3.8,0,5.7A3.71,3.71,0,0,1,476.45,57.49Z"/><path class="cls-8" d="M356.57,130.54a1.28,1.28,0,0,1,0-1.39,6.93,6.93,0,0,0,.87-3.61c-0.08-2.21-.07-4.42,0-6.62a7.3,7.3,0,0,0-1-4.08,0.82,0.82,0,0,1,0-1,6.9,6.9,0,0,0,1-3.83q-0.06-3.44,0-6.88a6.48,6.48,0,0,0-.76-3.39,1.37,1.37,0,0,1-.1-1.2,4,4,0,0,0-.73-3.79,11.32,11.32,0,0,0-4.68-3.55,41.76,41.76,0,0,0-9.36-2.66,69.46,69.46,0,0,0-23,0,41.76,41.76,0,0,0-9.36,2.66,11.32,11.32,0,0,0-4.68,3.55,4,4,0,0,0-.73,3.79,1.37,1.37,0,0,1-.1,1.2,6.48,6.48,0,0,0-.76,3.39q0.05,3.44,0,6.88a6.9,6.9,0,0,0,1,3.83,0.82,0.82,0,0,1,0,1,7.3,7.3,0,0,0-1,4.08c0.06,2.21.07,4.42,0,6.62a6.93,6.93,0,0,0,.87,3.61,1.28,1.28,0,0,1,0,1.39,6.59,6.59,0,0,0-.83,3.29c0,2.54,0,5.09,0,7.63a5.06,5.06,0,0,0,.18,1.41,10.32,10.32,0,0,0,4.87,5.84,33.25,33.25,0,0,0,12,4.29,40.52,40.52,0,0,0,9.9.68h0.43a40.52,40.52,0,0,0,9.9-.68,33.25,33.25,0,0,0,12-4.29,10.32,10.32,0,0,0,4.87-5.84,5.06,5.06,0,0,0,.18-1.41c0-2.54,0-5.09,0-7.63A6.59,6.59,0,0,0,356.57,130.54Z"/><path class="cls-1" d="M307.43,96.8a6.07,6.07,0,0,1,2.72-2.27A27.79,27.79,0,0,1,317,92.28a70.36,70.36,0,0,1,7.25-1.06,65.16,65.16,0,0,1,11.93,0,70.36,70.36,0,0,1,7.25,1.06,27.79,27.79,0,0,1,6.89,2.25,6.07,6.07,0,0,1,2.72,2.27,1.28,1.28,0,0,1,0,1.47,5.81,5.81,0,0,1-2.28,1.91c-3.43,1.89-7.22,2.59-11,3.14a62.89,62.89,0,0,1-19,0c-3.8-.55-7.6-1.25-11-3.14a5.81,5.81,0,0,1-2.28-1.91A1.28,1.28,0,0,1,307.43,96.8Z"/><path class="cls-1" d="M307.17,104.94A35,35,0,0,0,319.9,109a81.31,81.31,0,0,0,20.72,0,35,35,0,0,0,12.73-4.06c0.56-.33.67-0.16,0.66,0.39q0,2.64,0,5.28a3.06,3.06,0,0,1-.51,1.49,9.49,9.49,0,0,1-4.06,3.51,26.64,26.64,0,0,1-7.86,2.76,40.93,40.93,0,0,1-8.92,1.1c-0.71,0-1.42,0-2.4,0s-1.69,0-2.4,0a40.93,40.93,0,0,1-8.92-1.1,26.64,26.64,0,0,1-7.86-2.76A9.49,9.49,0,0,1,307,112.1a3.06,3.06,0,0,1-.51-1.49q0-2.64,0-5.28C306.5,104.78,306.61,104.61,307.17,104.94Z"/><path class="cls-1" d="M352.61,144.21c-3.1,3.06-7.11,4.15-11.17,5.12a42.75,42.75,0,0,1-4.68.76,45,45,0,0,1-13,0,42.75,42.75,0,0,1-4.68-.76c-4.06-1-8.07-2.06-11.17-5.12A4.24,4.24,0,0,1,306.5,141c0-1.82,0-3.63,0-5.45,0-.65.14-0.83,0.74-0.4a27.64,27.64,0,0,0,9.43,4.18c1.41,0.36,2.89.55,4.32,0.84a67.57,67.57,0,0,0,18.54,0c1.44-.29,2.91-0.48,4.32-0.84a27.64,27.64,0,0,0,9.43-4.18c0.6-.43.74-0.25,0.74,0.4,0,1.82,0,3.63,0,5.45A4.24,4.24,0,0,1,352.61,144.21Z"/><path class="cls-1" d="M353,128.36a15.22,15.22,0,0,1-7,4.31,45.13,45.13,0,0,1-6.37,1.65,61.44,61.44,0,0,1-7.6.85c-0.58,0-1.17.06-1.75,0.06s-1.17,0-1.75-.06a61.44,61.44,0,0,1-7.6-.85,45.13,45.13,0,0,1-6.37-1.65,15.22,15.22,0,0,1-7-4.31,3.71,3.71,0,0,1-1-2.51c0-1.9,0-3.8,0-5.7,0-.6.11-0.8,0.68-0.39a28.15,28.15,0,0,0,10.74,4.49c1.75,0.39,3.55.62,5.34,0.87,2.34,0.33,4.68.26,7,.37h0c2.33-.1,4.67,0,7-0.37,1.79-.25,3.59-0.48,5.34-0.87a28.15,28.15,0,0,0,10.74-4.49c0.57-.41.68-0.21,0.68,0.39,0,1.9,0,3.8,0,5.7A3.71,3.71,0,0,1,353,128.36Z"/><polygon class="cls-5" points="21.62 282.41 83.65 317.86 145.23 282.17 83.22 245.59 21.62 282.41"/><polygon class="cls-6" points="21.62 279.83 83.65 315.28 145.23 279.58 83.22 243.01 21.62 279.83"/><polygon class="cls-5" points="153.26 354.68 215.29 390.13 276.86 354.44 214.85 317.86 153.26 354.68"/><polygon class="cls-6" points="153.26 352.1 215.29 387.55 276.86 351.85 214.85 315.28 153.26 352.1"/><path class="cls-8" d="M241.37,342.74a1.28,1.28,0,0,1,0-1.39,6.93,6.93,0,0,0,.87-3.61c-0.08-2.21-.07-4.42,0-6.62a7.3,7.3,0,0,0-1-4.08,0.82,0.82,0,0,1,0-1,6.9,6.9,0,0,0,1-3.83q-0.06-3.44,0-6.88a6.48,6.48,0,0,0-.76-3.39,1.37,1.37,0,0,1-.1-1.2,4,4,0,0,0-.73-3.79,11.32,11.32,0,0,0-4.68-3.55,41.76,41.76,0,0,0-9.36-2.66,69.46,69.46,0,0,0-23,0,41.76,41.76,0,0,0-9.36,2.66,11.32,11.32,0,0,0-4.68,3.55,4,4,0,0,0-.73,3.79,1.37,1.37,0,0,1-.1,1.2,6.48,6.48,0,0,0-.76,3.39q0.05,3.44,0,6.88a6.9,6.9,0,0,0,1,3.83,0.82,0.82,0,0,1,0,1,7.3,7.3,0,0,0-1,4.08c0.06,2.21.07,4.42,0,6.62a6.93,6.93,0,0,0,.87,3.61,1.28,1.28,0,0,1,0,1.39,6.59,6.59,0,0,0-.83,3.29c0,2.54,0,5.09,0,7.63a5.06,5.06,0,0,0,.18,1.41,10.32,10.32,0,0,0,4.87,5.84,33.25,33.25,0,0,0,12,4.29,40.52,40.52,0,0,0,9.9.68h0.43a40.52,40.52,0,0,0,9.9-.68,33.25,33.25,0,0,0,12-4.29,10.32,10.32,0,0,0,4.87-5.84,5.06,5.06,0,0,0,.18-1.41c0-2.54,0-5.09,0-7.63A6.59,6.59,0,0,0,241.37,342.74Z"/><path class="cls-1" d="M192.23,309a6.07,6.07,0,0,1,2.72-2.27,27.79,27.79,0,0,1,6.89-2.25,70.36,70.36,0,0,1,7.25-1.06,65.16,65.16,0,0,1,11.93,0,70.36,70.36,0,0,1,7.25,1.06,27.79,27.79,0,0,1,6.89,2.25,6.07,6.07,0,0,1,2.72,2.27,1.28,1.28,0,0,1,0,1.47,5.81,5.81,0,0,1-2.28,1.91c-3.43,1.89-7.22,2.59-11,3.14a77.89,77.89,0,0,1-9.48.72,77.89,77.89,0,0,1-9.48-.72c-3.8-.55-7.6-1.25-11-3.14a5.81,5.81,0,0,1-2.28-1.91A1.28,1.28,0,0,1,192.23,309Z"/><path class="cls-1" d="M192,317.15a35,35,0,0,0,12.73,4.06,81.31,81.31,0,0,0,20.72,0,35,35,0,0,0,12.73-4.06c0.56-.33.67-0.16,0.66,0.39q0,2.64,0,5.28a3.06,3.06,0,0,1-.51,1.49,9.49,9.49,0,0,1-4.06,3.51,26.64,26.64,0,0,1-7.86,2.76,40.93,40.93,0,0,1-8.92,1.1c-0.71,0-1.42,0-2.4,0s-1.69,0-2.4,0a40.93,40.93,0,0,1-8.92-1.1,26.64,26.64,0,0,1-7.86-2.76,9.49,9.49,0,0,1-4.06-3.51,3.06,3.06,0,0,1-.51-1.49q0-2.64,0-5.28C191.3,317,191.41,316.82,192,317.15Z"/><path class="cls-1" d="M237.41,356.42c-3.1,3.06-7.11,4.15-11.17,5.12a42.75,42.75,0,0,1-4.68.76,45,45,0,0,1-13,0,42.75,42.75,0,0,1-4.68-.76c-4.06-1-8.07-2.06-11.17-5.12a4.24,4.24,0,0,1-1.41-3.19c0-1.82,0-3.63,0-5.45,0-.65.14-0.83,0.74-0.4a27.64,27.64,0,0,0,9.43,4.18c1.41,0.36,2.89.55,4.32,0.84a45.63,45.63,0,0,0,9.27.64,45.63,45.63,0,0,0,9.27-.64c1.44-.29,2.91-0.48,4.32-0.84a27.64,27.64,0,0,0,9.43-4.18c0.6-.43.74-0.25,0.74,0.4,0,1.82,0,3.63,0,5.45A4.24,4.24,0,0,1,237.41,356.42Z"/><path class="cls-1" d="M237.83,340.57a15.22,15.22,0,0,1-7,4.31,45.13,45.13,0,0,1-6.37,1.65,61.44,61.44,0,0,1-7.6.85c-0.58,0-1.17.06-1.75,0.06s-1.17,0-1.75-.06a61.44,61.44,0,0,1-7.6-.85,45.13,45.13,0,0,1-6.37-1.65,15.22,15.22,0,0,1-7-4.31,3.71,3.71,0,0,1-1-2.51c0-1.9,0-3.8,0-5.7,0-.6.11-0.8,0.68-0.39a28.15,28.15,0,0,0,10.74,4.49c1.75,0.39,3.55.62,5.34,0.87,2.34,0.33,4.68.26,7,.37h0c2.33-.1,4.67,0,7-0.37,1.79-.25,3.59-0.48,5.34-0.87A28.15,28.15,0,0,0,238.14,332c0.57-.41.68-0.21,0.68,0.39,0,1.9,0,3.8,0,5.7A3.71,3.71,0,0,1,237.83,340.57Z"/><path class="cls-8" d="M109.73,269.5a1.28,1.28,0,0,1,0-1.39,6.93,6.93,0,0,0,.87-3.61c-0.08-2.21-.07-4.42,0-6.62a7.3,7.3,0,0,0-1-4.08,0.82,0.82,0,0,1,0-1,6.9,6.9,0,0,0,1-3.83q-0.06-3.44,0-6.88a6.48,6.48,0,0,0-.76-3.39,1.37,1.37,0,0,1-.1-1.2,4,4,0,0,0-.73-3.79,11.32,11.32,0,0,0-4.68-3.55,41.76,41.76,0,0,0-9.36-2.66,60.26,60.26,0,0,0-11.5-1,60.26,60.26,0,0,0-11.5,1,41.76,41.76,0,0,0-9.36,2.66,11.32,11.32,0,0,0-4.68,3.55,4,4,0,0,0-.73,3.79,1.37,1.37,0,0,1-.1,1.2,6.48,6.48,0,0,0-.76,3.39q0.05,3.44,0,6.88a6.9,6.9,0,0,0,1,3.83,0.82,0.82,0,0,1,0,1,7.3,7.3,0,0,0-1,4.08c0.06,2.21.07,4.42,0,6.62a6.93,6.93,0,0,0,.87,3.61,1.28,1.28,0,0,1,0,1.39,6.59,6.59,0,0,0-.83,3.29c0,2.54,0,5.09,0,7.63a5.06,5.06,0,0,0,.18,1.41,10.32,10.32,0,0,0,4.87,5.84,33.25,33.25,0,0,0,12,4.29,40.52,40.52,0,0,0,9.9.68h0.43a40.52,40.52,0,0,0,9.9-.68,33.25,33.25,0,0,0,12-4.29,10.32,10.32,0,0,0,4.87-5.84,5.06,5.06,0,0,0,.18-1.41c0-2.54,0-5.09,0-7.63A6.59,6.59,0,0,0,109.73,269.5Z"/><path class="cls-1" d="M60.6,235.76a6.07,6.07,0,0,1,2.72-2.27,27.79,27.79,0,0,1,6.89-2.25,70.36,70.36,0,0,1,7.25-1.06,49.86,49.86,0,0,1,6-.27,49.86,49.86,0,0,1,6,.27,70.36,70.36,0,0,1,7.25,1.06,27.79,27.79,0,0,1,6.89,2.25,6.07,6.07,0,0,1,2.72,2.27,1.28,1.28,0,0,1,0,1.47,5.81,5.81,0,0,1-2.28,1.91c-3.43,1.89-7.22,2.59-11,3.14a77.89,77.89,0,0,1-9.48.72,77.89,77.89,0,0,1-9.48-.72c-3.8-.55-7.6-1.25-11-3.14a5.81,5.81,0,0,1-2.28-1.91A1.28,1.28,0,0,1,60.6,235.76Z"/><path class="cls-1" d="M60.33,243.9A35,35,0,0,0,73.07,248a65.85,65.85,0,0,0,10.36.66A65.85,65.85,0,0,0,93.78,248a35,35,0,0,0,12.73-4.06c0.56-.33.67-0.16,0.66,0.39q0,2.64,0,5.28a3.06,3.06,0,0,1-.51,1.49,9.49,9.49,0,0,1-4.06,3.51,26.64,26.64,0,0,1-7.86,2.76,40.93,40.93,0,0,1-8.92,1.1c-0.71,0-1.42,0-2.4,0s-1.69,0-2.4,0a40.93,40.93,0,0,1-8.92-1.1,26.64,26.64,0,0,1-7.86-2.76,9.49,9.49,0,0,1-4.06-3.51,3.06,3.06,0,0,1-.51-1.49q0-2.64,0-5.28C59.67,243.74,59.78,243.57,60.33,243.9Z"/><path class="cls-1" d="M105.77,283.17c-3.1,3.06-7.11,4.15-11.17,5.12a42.75,42.75,0,0,1-4.68.76,52.15,52.15,0,0,1-6.5.47,52.15,52.15,0,0,1-6.5-.47,42.75,42.75,0,0,1-4.68-.76c-4.06-1-8.07-2.06-11.17-5.12A4.24,4.24,0,0,1,59.66,280c0-1.82,0-3.63,0-5.45,0-.65.14-0.83,0.74-0.4a27.64,27.64,0,0,0,9.43,4.18c1.41,0.36,2.89.55,4.32,0.84a45.63,45.63,0,0,0,9.27.64,45.63,45.63,0,0,0,9.27-.64c1.44-.29,2.91-0.48,4.32-0.84a27.64,27.64,0,0,0,9.43-4.18c0.6-.43.74-0.25,0.74,0.4,0,1.82,0,3.63,0,5.45A4.24,4.24,0,0,1,105.77,283.17Z"/><path class="cls-1" d="M106.2,267.32a15.22,15.22,0,0,1-7,4.31,45.13,45.13,0,0,1-6.37,1.65,61.44,61.44,0,0,1-7.6.85c-0.58,0-1.17.06-1.75,0.06s-1.17,0-1.75-.06a61.44,61.44,0,0,1-7.6-.85,45.13,45.13,0,0,1-6.37-1.65,15.22,15.22,0,0,1-7-4.31,3.71,3.71,0,0,1-1-2.51c0-1.9,0-3.8,0-5.7,0-.6.11-0.8,0.68-0.39a28.15,28.15,0,0,0,10.74,4.49c1.75,0.39,3.55.62,5.34,0.87,2.34,0.33,4.68.26,7,.37h0c2.33-.1,4.67,0,7-0.37,1.79-.25,3.59-0.48,5.34-0.87a28.15,28.15,0,0,0,10.74-4.49c0.57-.41.68-0.21,0.68,0.39,0,1.9,0,3.8,0,5.7A3.71,3.71,0,0,1,106.2,267.32Z"/></svg>
